# xmcd
# 
# Track frame offsets:
#     150
#     9542
#     19839
#     33484
#     44581
#     56723
#     68270
#     83014
#     93554
#     103566
#     117623
#     128010
#     136645
#     146815
# 
# Disc length: 2099
# 
# Revision: 0
# Processed by: cddbd v1.5.2PL0 Copyright (c) Steve Scherf et al.
# Submitted via: fre:ac v1.0.17
# 
DISCID=ba08310e
DTITLE=Bobby Hachey - Noel Country
DYEAR=0
DGENRE=Country
TTITLE0=Let It Snow, Let It Snow, Let It Snow
TTITLE1=Winter Wonderland
TTITLE2=White Christmas
TTITLE3=Le Sentier De Neige
TTITLE4=Please Come For Christmas
TTITLE5=Blue Christmas
TTITLE6=The Christmas Song
TTITLE7=Frosty The Snow Man
TTITLE8=Santa Clause Is Coming To Town
TTITLE9=What A Merry Christmas This Could Be
TTITLE10=The Merry Christmas Polka
TTITLE11=Christmas Time Is Coming
TTITLE12=All I Want For Christmas Is You
TTITLE13=Santa Looked A Lot Like Daddy
EXTD=
EXTT0=
EXTT1=
EXTT2=
EXTT3=
EXTT4=
EXTT5=
EXTT6=
EXTT7=
EXTT8=
EXTT9=
EXTT10=
EXTT11=
EXTT12=
EXTT13=
PLAYORDER=
